# xmcd
#
# Track frame offsets: 
#        150
#        9519
#        26517
#        58301
#        74226
#        121801
#        140594
#        158886
#        173600
#        189654
#        211365
#
# Disc length: 2861 seconds
#
# Revision: 1
# Processed by: cddbd v1.5.2PL0 Copyright (c) Steve Scherf et al.
# Submitted via: ExactAudioCopy v0.99pb4
#
DISCID=a00b2b0b
DTITLE=Ришад Шафи и Гунеш - 45° в Тени
DYEAR=2000
DGENRE=Jazz
TTITLE0=Интродукция
TTITLE1=Моим друзьям - 1
TTITLE2=Вьетнамские фрески
TTITLE3=45' в тени
TTITLE4=Ритмы древней земли
TTITLE5=Волшебный халат
TTITLE6=Ляна
TTITLE7=Кечпелег
TTITLE8=Моим друзьям - 2
TTITLE9=В путь
TTITLE10=Финал
EXTD=
EXTT0=
EXTT1=
EXTT2=
EXTT3=
EXTT4=
EXTT5=
EXTT6=
EXTT7=
EXTT8=
EXTT9=
EXTT10=
PLAYORDER=
